<?xml version="1.0" encoding="UTF-8" standalone="no"?>
<!-- Created with Inkscape (http://www.inkscape.org/) -->

<svg
   width="50mm"
   height="50mm"
   viewBox="0 0 50 50"
   version="1.1"
   id="svg5"
   inkscape:version="1.1 (c68e22c387, 2021-05-23)"
   sodipodi:docname="hipsterCat.svg"
   xmlns:inkscape="http://www.inkscape.org/namespaces/inkscape"
   xmlns:sodipodi="http://sodipodi.sourceforge.net/DTD/sodipodi-0.dtd"
   xmlns="http://www.w3.org/2000/svg"
   xmlns:svg="http://www.w3.org/2000/svg">
  <sodipodi:namedview
     id="namedview7"
     pagecolor="#ffffff"
     bordercolor="#666666"
     borderopacity="1.0"
     inkscape:pageshadow="2"
     inkscape:pageopacity="0.0"
     inkscape:pagecheckerboard="0"
     inkscape:document-units="mm"
     showgrid="false"
     inkscape:zoom="1.4142136"
     inkscape:cx="42.088535"
     inkscape:cy="39.985062"
     inkscape:window-width="1536"
     inkscape:window-height="801"
     inkscape:window-x="-8"
     inkscape:window-y="-8"
     inkscape:window-maximized="1"
     inkscape:current-layer="layer1"
     units="mm"
     inkscape:rotation="-1" />
  <defs
     id="defs2">
    <marker
       style="overflow:visible"
       id="Arrow1Lstart"
       refX="0"
       refY="0"
       orient="auto"
       inkscape:stockid="Arrow1Lstart"
       inkscape:isstock="true">
      <path
         transform="matrix(0.8,0,0,0.8,10,0)"
         style="fill:context-stroke;fill-rule:evenodd;stroke:context-stroke;stroke-width:1pt"
         d="M 0,0 5,-5 -12.5,0 5,5 Z"
         id="path1091" />
    </marker>
  </defs>
  <g
     inkscape:label="Layer 1"
     inkscape:groupmode="layer"
     id="layer1">
    <path
       id="path21969"
       style="fill:#f7d671;fill-opacity:1;stroke:#000000;stroke-width:4;stroke-linecap:butt;stroke-linejoin:round;stroke-miterlimit:4;stroke-dasharray:none;stroke-opacity:1"
       d="M 16.571085,3.6736585 C 8.5637309,12.287728 7.1478702,36.948696 3.6732668,48.054714 c 23.2929232,0 23.3000572,0 42.6807552,0 C 42.879416,36.948696 41.464266,12.287728 33.456914,3.6736585 l -4.280042,6.7729905 c -2.381908,-0.9855754 -5.171736,-1.0539514 -8.325746,0 z"
       sodipodi:nodetypes="ccccccc" />
    <path
       id="path21969-8"
       style="fill:#cc4b4b;fill-opacity:1;stroke:#000000;stroke-width:4;stroke-linecap:butt;stroke-linejoin:round;stroke-miterlimit:4;stroke-dasharray:none;stroke-opacity:1"
       d="M 7.2472567,31.639002 C 6.3769834,36.405571 4.6787196,44.840944 3.673267,48.054714 H 46.354022 C 45.357839,44.870575 43.56743,35.130629 42.705926,30.415702 l -17.712113,8.149811 z"
       sodipodi:nodetypes="cccccc" />
    <path
       style="fill:none;stroke:#000000;stroke-width:4;stroke-linecap:round;stroke-linejoin:miter;stroke-miterlimit:4;stroke-dasharray:none;stroke-opacity:1"
       d="m 6.6596411,21.623929 5.3567909,2.292792"
       id="path26660" />
    <path
       style="fill:none;stroke:#000000;stroke-width:4;stroke-linecap:round;stroke-linejoin:miter;stroke-miterlimit:4;stroke-dasharray:none;stroke-opacity:1"
       d="m 4.6055952,28.532349 5.8180298,0.32036"
       id="path26660-5" />
    <path
       style="fill:none;stroke:#000000;stroke-width:4;stroke-linecap:round;stroke-linejoin:miter;stroke-miterlimit:4;stroke-dasharray:none;stroke-opacity:1"
       d="m 43.195616,21.623929 -5.35679,2.292792"
       id="path26660-2" />
    <path
       style="fill:none;stroke:#000000;stroke-width:4;stroke-linecap:round;stroke-linejoin:miter;stroke-miterlimit:4;stroke-dasharray:none;stroke-opacity:1"
       d="m 45.249662,28.532349 -5.81803,0.32036"
       id="path26660-5-5" />
    <path
       id="path28549"
       style="fill:none;stroke:#000000;stroke-width:2;stroke-linecap:round;stroke-linejoin:round;stroke-miterlimit:4;stroke-dasharray:none;paint-order:markers fill stroke"
       d="m 25.085702,31.903043 c 10e-7,0.820316 -0.546404,1.540203 -1.336495,1.76083 -0.79009,0.220626 -1.630409,-0.112029 -2.055404,-0.81367 -0.424994,-0.70164 -0.330602,-1.600464 0.230882,-2.198508"
       sodipodi:nodetypes="cssc" />
    <path
       id="path28549-7"
       style="fill:none;stroke:#000000;stroke-width:2;stroke-linecap:round;stroke-linejoin:round;stroke-miterlimit:4;stroke-dasharray:none;paint-order:markers fill stroke"
       d="m 25.085702,31.903043 c 0,0.820316 0.546405,1.540203 1.336496,1.76083 0.79009,0.220626 1.630409,-0.112029 2.055404,-0.81367 0.424994,-0.70164 0.330602,-1.600464 -0.230882,-2.198507"
       sodipodi:nodetypes="cssc" />
    <path
       style="fill:#8ed1ff;stroke:#000000;stroke-width:3;stroke-linecap:round;stroke-linejoin:round;stroke-opacity:1;paint-order:markers fill stroke;stroke-miterlimit:4;stroke-dasharray:none"
       id="path52981"
       sodipodi:type="arc"
       sodipodi:cx="32.812057"
       sodipodi:cy="19.867256"
       sodipodi:rx="7.5730863"
       sodipodi:ry="9.3526974"
       sodipodi:start="0"
       sodipodi:end="3.1415927"
       sodipodi:arc-type="slice"
       d="m 40.385144,19.867256 a 7.5730863,9.3526974 0 0 1 -3.786543,8.099674 7.5730863,9.3526974 0 0 1 -7.573087,0 7.5730863,9.3526974 0 0 1 -3.786543,-8.099674 h 7.573086 z" />
    <path
       style="fill:#8ed1ff;stroke:#000000;stroke-width:3;stroke-linecap:round;stroke-linejoin:round;stroke-opacity:1;paint-order:markers fill stroke;stroke-miterlimit:4;stroke-dasharray:none"
       id="path52981-8"
       sodipodi:type="arc"
       sodipodi:cx="17.209358"
       sodipodi:cy="19.867256"
       sodipodi:rx="7.6850142"
       sodipodi:ry="9.3526974"
       sodipodi:start="0"
       sodipodi:end="3.1415927"
       sodipodi:arc-type="slice"
       d="m 24.894372,19.867256 a 7.6850142,9.3526974 0 0 1 -3.842507,8.099674 7.6850142,9.3526974 0 0 1 -7.685014,0 7.6850142,9.3526974 0 0 1 -3.842507,-8.099674 h 7.685014 z" />
    <ellipse
       style="fill:#000000;fill-opacity:0.997669;stroke:none;stroke-width:4.99937;stroke-linecap:round;stroke-linejoin:round;stroke-miterlimit:4;stroke-dasharray:none;stroke-opacity:1;paint-order:markers fill stroke"
       id="path28034"
       cx="19.004335"
       cy="22.972601"
       rx="2"
       ry="3" />
    <ellipse
       style="fill:#000000;fill-opacity:0.997669;stroke:none;stroke-width:4.99937;stroke-linecap:round;stroke-linejoin:round;stroke-miterlimit:4;stroke-dasharray:none;stroke-opacity:1;paint-order:markers fill stroke"
       id="path28034-1"
       cx="30.8407"
       cy="22.837452"
       rx="2"
       ry="3" />
    <path
       style="fill:#1a4f5d;fill-opacity:1;stroke:#000000;stroke-width:3;stroke-linecap:butt;stroke-linejoin:miter;stroke-miterlimit:4;stroke-dasharray:none;stroke-opacity:1"
       d="m 12.702339,34.250075 4.720067,1.757418 v 11.314823 h -4.704469 z"
       id="path54490" />
    <path
       style="fill:#1a4f5d;fill-opacity:1;stroke:#000000;stroke-width:3;stroke-linecap:butt;stroke-linejoin:miter;stroke-miterlimit:4;stroke-dasharray:none;stroke-opacity:1"
       d="m 36.429982,34.250075 -4.720067,1.757418 v 11.314823 h 4.704469 z"
       id="path54490-0" />
    <path
       style="fill:#1a4f5d;fill-opacity:1;stroke:#000000;stroke-width:3;stroke-linecap:round;stroke-linejoin:round;stroke-miterlimit:4;stroke-dasharray:none;stroke-opacity:1;paint-order:markers fill stroke"
       id="path55688"
       sodipodi:type="arc"
       sodipodi:cx="-25.277401"
       sodipodi:cy="-11.982249"
       sodipodi:rx="6.4499612"
       sodipodi:ry="10.696576"
       sodipodi:start="0"
       sodipodi:end="3.1415927"
       sodipodi:arc-type="slice"
       d="m -18.82744,-11.982249 a 6.4499612,10.696576 0 0 1 -3.22498,9.2635065 6.4499612,10.696576 0 0 1 -6.449962,-3e-7 6.4499612,10.696576 0 0 1 -3.22498,-9.2635062 h 6.449961 z"
       transform="scale(-1)" />
  </g>
</svg>
